<mxfile host="Electron" modified="2024-09-29T10:10:50.802Z" agent="Mozilla/5.0 (Windows NT 10.0; Win64; x64) AppleWebKit/537.36 (KHTML, like Gecko) draw.io/24.6.1 Chrome/124.0.6367.207 Electron/30.0.6 Safari/537.36" etag="Ic5qbhPN0E1uC6lf2oXh" version="24.6.1" type="device">
  <diagram name="第 1 页" id="NbJ7uVP1SbW0fN08NpJ6">
    <mxGraphModel dx="1036" dy="614" grid="1" gridSize="10" guides="1" tooltips="1" connect="1" arrows="1" fold="1" page="1" pageScale="1" pageWidth="827" pageHeight="1169" math="0" shadow="0">
      <root>
        <mxCell id="0" />
        <mxCell id="1" parent="0" />
        <mxCell id="NJu38FcJAUvmYDNz97jk-3" value="" style="edgeStyle=orthogonalEdgeStyle;rounded=0;orthogonalLoop=1;jettySize=auto;html=1;" parent="1" source="NJu38FcJAUvmYDNz97jk-1" target="NJu38FcJAUvmYDNz97jk-2" edge="1">
          <mxGeometry relative="1" as="geometry" />
        </mxCell>
        <mxCell id="NJu38FcJAUvmYDNz97jk-1" value="安装插件&lt;div&gt;即增强类&lt;/div&gt;" style="ellipse;whiteSpace=wrap;html=1;" parent="1" vertex="1">
          <mxGeometry x="250" y="50" width="120" height="80" as="geometry" />
        </mxCell>
        <mxCell id="NJu38FcJAUvmYDNz97jk-2" value="" style="whiteSpace=wrap;html=1;" parent="1" vertex="1">
          <mxGeometry x="250" y="220" width="120" height="60" as="geometry" />
        </mxCell>
        <mxCell id="_u0lqeuWp6ZSdY1_psYx-3" value="" style="edgeStyle=orthogonalEdgeStyle;rounded=0;orthogonalLoop=1;jettySize=auto;html=1;" edge="1" parent="1" source="_u0lqeuWp6ZSdY1_psYx-1" target="_u0lqeuWp6ZSdY1_psYx-2">
          <mxGeometry relative="1" as="geometry" />
        </mxCell>
        <mxCell id="_u0lqeuWp6ZSdY1_psYx-1" value="对指定类进行增强" style="rounded=0;whiteSpace=wrap;html=1;" vertex="1" parent="1">
          <mxGeometry x="550" y="60" width="120" height="60" as="geometry" />
        </mxCell>
        <mxCell id="_u0lqeuWp6ZSdY1_psYx-5" value="" style="edgeStyle=orthogonalEdgeStyle;rounded=0;orthogonalLoop=1;jettySize=auto;html=1;" edge="1" parent="1" source="_u0lqeuWp6ZSdY1_psYx-2" target="_u0lqeuWp6ZSdY1_psYx-4">
          <mxGeometry relative="1" as="geometry" />
        </mxCell>
        <mxCell id="_u0lqeuWp6ZSdY1_psYx-2" value="给bytebuddy指定类增强插件：&lt;div&gt;Transformer&lt;br&gt;&lt;/div&gt;" style="whiteSpace=wrap;html=1;rounded=0;" vertex="1" parent="1">
          <mxGeometry x="550" y="200" width="120" height="60" as="geometry" />
        </mxCell>
        <mxCell id="_u0lqeuWp6ZSdY1_psYx-7" value="" style="edgeStyle=orthogonalEdgeStyle;rounded=0;orthogonalLoop=1;jettySize=auto;html=1;" edge="1" parent="1" source="_u0lqeuWp6ZSdY1_psYx-4" target="_u0lqeuWp6ZSdY1_psYx-6">
          <mxGeometry relative="1" as="geometry" />
        </mxCell>
        <mxCell id="_u0lqeuWp6ZSdY1_psYx-4" value="每加载到一个类时，会回调Transformer的transform" style="whiteSpace=wrap;html=1;rounded=0;" vertex="1" parent="1">
          <mxGeometry x="550" y="330" width="120" height="60" as="geometry" />
        </mxCell>
        <mxCell id="_u0lqeuWp6ZSdY1_psYx-9" value="" style="edgeStyle=orthogonalEdgeStyle;rounded=0;orthogonalLoop=1;jettySize=auto;html=1;" edge="1" parent="1" source="_u0lqeuWp6ZSdY1_psYx-6" target="_u0lqeuWp6ZSdY1_psYx-8">
          <mxGeometry relative="1" as="geometry" />
        </mxCell>
        <mxCell id="_u0lqeuWp6ZSdY1_psYx-11" value="" style="edgeStyle=orthogonalEdgeStyle;rounded=0;orthogonalLoop=1;jettySize=auto;html=1;" edge="1" parent="1" source="_u0lqeuWp6ZSdY1_psYx-6" target="_u0lqeuWp6ZSdY1_psYx-10">
          <mxGeometry relative="1" as="geometry" />
        </mxCell>
        <mxCell id="_u0lqeuWp6ZSdY1_psYx-14" value="" style="edgeStyle=orthogonalEdgeStyle;rounded=0;orthogonalLoop=1;jettySize=auto;html=1;" edge="1" parent="1" source="_u0lqeuWp6ZSdY1_psYx-6" target="_u0lqeuWp6ZSdY1_psYx-13">
          <mxGeometry relative="1" as="geometry" />
        </mxCell>
        <mxCell id="_u0lqeuWp6ZSdY1_psYx-6" value="判断针对当前读取的类是否有增强的插件？" style="whiteSpace=wrap;html=1;rounded=0;fillColor=#d5e8d4;strokeColor=#82b366;" vertex="1" parent="1">
          <mxGeometry x="550" y="470" width="120" height="60" as="geometry" />
        </mxCell>
        <mxCell id="_u0lqeuWp6ZSdY1_psYx-36" value="" style="edgeStyle=orthogonalEdgeStyle;rounded=0;orthogonalLoop=1;jettySize=auto;html=1;" edge="1" parent="1" source="_u0lqeuWp6ZSdY1_psYx-8" target="_u0lqeuWp6ZSdY1_psYx-35">
          <mxGeometry relative="1" as="geometry" />
        </mxCell>
        <mxCell id="_u0lqeuWp6ZSdY1_psYx-8" value="pluginFinder.find(typeDescription)" style="whiteSpace=wrap;html=1;rounded=0;" vertex="1" parent="1">
          <mxGeometry x="750" y="470" width="230" height="60" as="geometry" />
        </mxCell>
        <mxCell id="_u0lqeuWp6ZSdY1_psYx-16" value="" style="edgeStyle=orthogonalEdgeStyle;rounded=0;orthogonalLoop=1;jettySize=auto;html=1;" edge="1" parent="1" source="_u0lqeuWp6ZSdY1_psYx-10">
          <mxGeometry relative="1" as="geometry">
            <mxPoint x="610" y="750" as="targetPoint" />
          </mxGeometry>
        </mxCell>
        <mxCell id="_u0lqeuWp6ZSdY1_psYx-10" value="有，对类进行增强" style="whiteSpace=wrap;html=1;rounded=0;fillColor=#dae8fc;strokeColor=#6c8ebf;" vertex="1" parent="1">
          <mxGeometry x="550" y="610" width="120" height="60" as="geometry" />
        </mxCell>
        <mxCell id="_u0lqeuWp6ZSdY1_psYx-28" style="edgeStyle=orthogonalEdgeStyle;rounded=0;orthogonalLoop=1;jettySize=auto;html=1;entryX=0;entryY=0.5;entryDx=0;entryDy=0;exitX=0.5;exitY=1;exitDx=0;exitDy=0;" edge="1" parent="1" source="_u0lqeuWp6ZSdY1_psYx-13" target="_u0lqeuWp6ZSdY1_psYx-26">
          <mxGeometry relative="1" as="geometry" />
        </mxCell>
        <mxCell id="_u0lqeuWp6ZSdY1_psYx-13" value="无、直接跳过，不处理当前类" style="whiteSpace=wrap;html=1;rounded=0;fillColor=#f8cecc;strokeColor=#b85450;" vertex="1" parent="1">
          <mxGeometry x="350" y="470" width="120" height="60" as="geometry" />
        </mxCell>
        <mxCell id="_u0lqeuWp6ZSdY1_psYx-20" value="" style="edgeStyle=orthogonalEdgeStyle;rounded=0;orthogonalLoop=1;jettySize=auto;html=1;" edge="1" parent="1" source="_u0lqeuWp6ZSdY1_psYx-17" target="_u0lqeuWp6ZSdY1_psYx-19">
          <mxGeometry relative="1" as="geometry" />
        </mxCell>
        <mxCell id="_u0lqeuWp6ZSdY1_psYx-17" value="遍历所有匹配的插件" style="ellipse;whiteSpace=wrap;html=1;fillColor=#dae8fc;strokeColor=#6c8ebf;rounded=0;" vertex="1" parent="1">
          <mxGeometry x="570" y="750" width="80" height="80" as="geometry" />
        </mxCell>
        <mxCell id="_u0lqeuWp6ZSdY1_psYx-24" value="" style="edgeStyle=orthogonalEdgeStyle;rounded=0;orthogonalLoop=1;jettySize=auto;html=1;" edge="1" parent="1" source="_u0lqeuWp6ZSdY1_psYx-19" target="_u0lqeuWp6ZSdY1_psYx-23">
          <mxGeometry relative="1" as="geometry" />
        </mxCell>
        <mxCell id="_u0lqeuWp6ZSdY1_psYx-32" value="" style="edgeStyle=orthogonalEdgeStyle;rounded=0;orthogonalLoop=1;jettySize=auto;html=1;" edge="1" parent="1" source="_u0lqeuWp6ZSdY1_psYx-19" target="_u0lqeuWp6ZSdY1_psYx-31">
          <mxGeometry relative="1" as="geometry" />
        </mxCell>
        <mxCell id="_u0lqeuWp6ZSdY1_psYx-19" value="对目标类使用插件增强：&lt;div&gt;AbstractClassEnhancePluginDefine#define&lt;br&gt;&lt;/div&gt;" style="whiteSpace=wrap;html=1;fillColor=#dae8fc;strokeColor=#6c8ebf;rounded=0;" vertex="1" parent="1">
          <mxGeometry x="490" y="910" width="240" height="70" as="geometry" />
        </mxCell>
        <mxCell id="_u0lqeuWp6ZSdY1_psYx-22" value="" style="curved=1;endArrow=classic;html=1;rounded=0;" edge="1" parent="1">
          <mxGeometry width="50" height="50" relative="1" as="geometry">
            <mxPoint x="630" y="740" as="sourcePoint" />
            <mxPoint x="600" y="740" as="targetPoint" />
            <Array as="points">
              <mxPoint x="670" y="750" />
              <mxPoint x="680" y="810" />
              <mxPoint x="640" y="850" />
              <mxPoint x="590" y="850" />
              <mxPoint x="560" y="830" />
              <mxPoint x="550" y="800" />
              <mxPoint x="550" y="760" />
              <mxPoint x="570" y="740" />
            </Array>
          </mxGeometry>
        </mxCell>
        <mxCell id="_u0lqeuWp6ZSdY1_psYx-27" value="" style="edgeStyle=orthogonalEdgeStyle;rounded=0;orthogonalLoop=1;jettySize=auto;html=1;" edge="1" parent="1" source="_u0lqeuWp6ZSdY1_psYx-23" target="_u0lqeuWp6ZSdY1_psYx-26">
          <mxGeometry relative="1" as="geometry" />
        </mxCell>
        <mxCell id="_u0lqeuWp6ZSdY1_psYx-23" value="增强后，插件会将自己的增强规则定义再builder中，最后统一调用 builder的build函数" style="whiteSpace=wrap;html=1;fillColor=#dae8fc;strokeColor=#6c8ebf;rounded=0;" vertex="1" parent="1">
          <mxGeometry x="500" y="1065" width="220" height="75" as="geometry" />
        </mxCell>
        <mxCell id="_u0lqeuWp6ZSdY1_psYx-26" value="结束增强" style="whiteSpace=wrap;html=1;fillColor=#dae8fc;strokeColor=#6c8ebf;rounded=0;" vertex="1" parent="1">
          <mxGeometry x="550" y="1227.5" width="120" height="60" as="geometry" />
        </mxCell>
        <mxCell id="_u0lqeuWp6ZSdY1_psYx-34" value="" style="edgeStyle=orthogonalEdgeStyle;rounded=0;orthogonalLoop=1;jettySize=auto;html=1;" edge="1" parent="1" source="_u0lqeuWp6ZSdY1_psYx-31" target="_u0lqeuWp6ZSdY1_psYx-33">
          <mxGeometry relative="1" as="geometry" />
        </mxCell>
        <mxCell id="_u0lqeuWp6ZSdY1_psYx-31" value="增强逻辑" style="shape=parallelogram;perimeter=parallelogramPerimeter;whiteSpace=wrap;html=1;fixedSize=1;fillColor=#dae8fc;strokeColor=#6c8ebf;rounded=0;" vertex="1" parent="1">
          <mxGeometry x="870" y="915" width="120" height="60" as="geometry" />
        </mxCell>
        <mxCell id="_u0lqeuWp6ZSdY1_psYx-38" value="" style="edgeStyle=orthogonalEdgeStyle;rounded=0;orthogonalLoop=1;jettySize=auto;html=1;" edge="1" parent="1" source="_u0lqeuWp6ZSdY1_psYx-33" target="_u0lqeuWp6ZSdY1_psYx-37">
          <mxGeometry relative="1" as="geometry" />
        </mxCell>
        <mxCell id="_u0lqeuWp6ZSdY1_psYx-33" value="1. 跳过白名单类。这个功能是用于区分版本问题。" style="whiteSpace=wrap;html=1;fillColor=#dae8fc;strokeColor=#6c8ebf;rounded=0;" vertex="1" parent="1">
          <mxGeometry x="1070" y="915" width="120" height="60" as="geometry" />
        </mxCell>
        <mxCell id="_u0lqeuWp6ZSdY1_psYx-35" value="通过&amp;nbsp;ClassMatch 规则匹配是否可以增强" style="whiteSpace=wrap;html=1;rounded=0;fillColor=#d5e8d4;strokeColor=#82b366;" vertex="1" parent="1">
          <mxGeometry x="1115" y="470" width="120" height="60" as="geometry" />
        </mxCell>
        <mxCell id="_u0lqeuWp6ZSdY1_psYx-40" value="" style="edgeStyle=orthogonalEdgeStyle;rounded=0;orthogonalLoop=1;jettySize=auto;html=1;" edge="1" parent="1" source="_u0lqeuWp6ZSdY1_psYx-37" target="_u0lqeuWp6ZSdY1_psYx-39">
          <mxGeometry relative="1" as="geometry" />
        </mxCell>
        <mxCell id="_u0lqeuWp6ZSdY1_psYx-37" value="白名单函数" style="whiteSpace=wrap;html=1;fillColor=#dae8fc;strokeColor=#6c8ebf;rounded=0;" vertex="1" parent="1">
          <mxGeometry x="1070" y="1055" width="120" height="60" as="geometry" />
        </mxCell>
        <mxCell id="_u0lqeuWp6ZSdY1_psYx-42" value="" style="edgeStyle=orthogonalEdgeStyle;rounded=0;orthogonalLoop=1;jettySize=auto;html=1;" edge="1" parent="1" source="_u0lqeuWp6ZSdY1_psYx-39" target="_u0lqeuWp6ZSdY1_psYx-41">
          <mxGeometry relative="1" as="geometry" />
        </mxCell>
        <mxCell id="_u0lqeuWp6ZSdY1_psYx-39" value="插件增强指定的类&lt;div&gt;AbstractClassEnhancePluginDefine#enhance&lt;br&gt;&lt;/div&gt;" style="whiteSpace=wrap;html=1;fillColor=#dae8fc;strokeColor=#6c8ebf;rounded=0;" vertex="1" parent="1">
          <mxGeometry x="980" y="1180" width="300" height="55" as="geometry" />
        </mxCell>
        <mxCell id="_u0lqeuWp6ZSdY1_psYx-44" value="" style="edgeStyle=orthogonalEdgeStyle;rounded=0;orthogonalLoop=1;jettySize=auto;html=1;" edge="1" parent="1" source="_u0lqeuWp6ZSdY1_psYx-41" target="_u0lqeuWp6ZSdY1_psYx-43">
          <mxGeometry relative="1" as="geometry" />
        </mxCell>
        <mxCell id="_u0lqeuWp6ZSdY1_psYx-41" value="增强对象函数" style="whiteSpace=wrap;html=1;fillColor=#d5e8d4;strokeColor=#82b366;rounded=0;" vertex="1" parent="1">
          <mxGeometry x="1450" y="1177.5" width="120" height="60" as="geometry" />
        </mxCell>
        <mxCell id="_u0lqeuWp6ZSdY1_psYx-46" value="" style="edgeStyle=orthogonalEdgeStyle;rounded=0;orthogonalLoop=1;jettySize=auto;html=1;" edge="1" parent="1" source="_u0lqeuWp6ZSdY1_psYx-43" target="_u0lqeuWp6ZSdY1_psYx-45">
          <mxGeometry relative="1" as="geometry" />
        </mxCell>
        <mxCell id="_u0lqeuWp6ZSdY1_psYx-43" value="增强静态函数" style="whiteSpace=wrap;html=1;fillColor=#ffe6cc;strokeColor=#d79b00;rounded=0;" vertex="1" parent="1">
          <mxGeometry x="1450" y="1317.5" width="120" height="60" as="geometry" />
        </mxCell>
        <mxCell id="_u0lqeuWp6ZSdY1_psYx-48" value="" style="edgeStyle=orthogonalEdgeStyle;rounded=0;orthogonalLoop=1;jettySize=auto;html=1;" edge="1" parent="1" source="_u0lqeuWp6ZSdY1_psYx-45" target="_u0lqeuWp6ZSdY1_psYx-47">
          <mxGeometry relative="1" as="geometry" />
        </mxCell>
        <mxCell id="_u0lqeuWp6ZSdY1_psYx-45" value="设定标志位，证明该类已被增强过" style="whiteSpace=wrap;html=1;fillColor=#dae8fc;strokeColor=#6c8ebf;rounded=0;" vertex="1" parent="1">
          <mxGeometry x="1450" y="1457.5" width="120" height="60" as="geometry" />
        </mxCell>
        <mxCell id="_u0lqeuWp6ZSdY1_psYx-47" value="增强功能结束" style="ellipse;whiteSpace=wrap;html=1;fillColor=#dae8fc;strokeColor=#6c8ebf;rounded=0;" vertex="1" parent="1">
          <mxGeometry x="1470" y="1587.5" width="80" height="80" as="geometry" />
        </mxCell>
        <mxCell id="_u0lqeuWp6ZSdY1_psYx-49" value="增强对象函数" style="rounded=1;whiteSpace=wrap;html=1;fillColor=#d5e8d4;strokeColor=#82b366;" vertex="1" parent="1">
          <mxGeometry x="2300" y="1055" width="120" height="60" as="geometry" />
        </mxCell>
        <mxCell id="_u0lqeuWp6ZSdY1_psYx-52" value="" style="edgeStyle=orthogonalEdgeStyle;rounded=0;orthogonalLoop=1;jettySize=auto;html=1;" edge="1" parent="1" source="_u0lqeuWp6ZSdY1_psYx-50" target="_u0lqeuWp6ZSdY1_psYx-51">
          <mxGeometry relative="1" as="geometry" />
        </mxCell>
        <mxCell id="_u0lqeuWp6ZSdY1_psYx-50" value="增强静态函数" style="rounded=0;whiteSpace=wrap;html=1;fillColor=#ffe6cc;strokeColor=#d79b00;" vertex="1" parent="1">
          <mxGeometry x="1730" y="1150" width="120" height="60" as="geometry" />
        </mxCell>
        <mxCell id="_u0lqeuWp6ZSdY1_psYx-56" value="" style="edgeStyle=orthogonalEdgeStyle;rounded=0;orthogonalLoop=1;jettySize=auto;html=1;" edge="1" parent="1" source="_u0lqeuWp6ZSdY1_psYx-51" target="_u0lqeuWp6ZSdY1_psYx-55">
          <mxGeometry relative="1" as="geometry" />
        </mxCell>
        <mxCell id="_u0lqeuWp6ZSdY1_psYx-60" style="edgeStyle=orthogonalEdgeStyle;rounded=0;orthogonalLoop=1;jettySize=auto;html=1;entryX=0.5;entryY=0;entryDx=0;entryDy=0;" edge="1" parent="1" source="_u0lqeuWp6ZSdY1_psYx-51" target="_u0lqeuWp6ZSdY1_psYx-58">
          <mxGeometry relative="1" as="geometry" />
        </mxCell>
        <mxCell id="_u0lqeuWp6ZSdY1_psYx-51" value="获取静态函数拦截点&lt;div&gt;getStaticMethodsInterceptPoints&lt;br&gt;&lt;/div&gt;&lt;div&gt;描述点是指：用于描述静态函数的一个声明。这里其实就是为了方便找到这个静态函数对象&lt;/div&gt;" style="whiteSpace=wrap;html=1;fillColor=#ffe6cc;strokeColor=#d79b00;rounded=0;" vertex="1" parent="1">
          <mxGeometry x="1645" y="1280" width="290" height="90" as="geometry" />
        </mxCell>
        <mxCell id="_u0lqeuWp6ZSdY1_psYx-55" value="静态函数方法名,&lt;div&gt;&lt;span style=&quot;background-color: initial;&quot;&gt;处理静态函数的拦截器类名&lt;/span&gt;&lt;div&gt;是否覆盖函数...&lt;/div&gt;&lt;/div&gt;" style="whiteSpace=wrap;html=1;fillColor=#ffe6cc;strokeColor=#d79b00;rounded=0;" vertex="1" parent="1">
          <mxGeometry x="1990" y="1192.5" width="130" height="265" as="geometry" />
        </mxCell>
        <mxCell id="_u0lqeuWp6ZSdY1_psYx-62" value="" style="edgeStyle=orthogonalEdgeStyle;rounded=0;orthogonalLoop=1;jettySize=auto;html=1;" edge="1" parent="1" source="_u0lqeuWp6ZSdY1_psYx-58" target="_u0lqeuWp6ZSdY1_psYx-61">
          <mxGeometry relative="1" as="geometry" />
        </mxCell>
        <mxCell id="_u0lqeuWp6ZSdY1_psYx-58" value="循环所有的拦截点声明对象" style="ellipse;whiteSpace=wrap;html=1;fillColor=#ffe6cc;strokeColor=#d79b00;rounded=0;" vertex="1" parent="1">
          <mxGeometry x="1750" y="1430" width="80" height="80" as="geometry" />
        </mxCell>
        <mxCell id="_u0lqeuWp6ZSdY1_psYx-59" value="" style="curved=1;endArrow=classic;html=1;rounded=0;" edge="1" parent="1">
          <mxGeometry width="50" height="50" relative="1" as="geometry">
            <mxPoint x="1810" y="1420" as="sourcePoint" />
            <mxPoint x="1780" y="1420" as="targetPoint" />
            <Array as="points">
              <mxPoint x="1850" y="1430" />
              <mxPoint x="1860" y="1490" />
              <mxPoint x="1820" y="1530" />
              <mxPoint x="1770" y="1530" />
              <mxPoint x="1740" y="1510" />
              <mxPoint x="1730" y="1480" />
              <mxPoint x="1730" y="1440" />
              <mxPoint x="1750" y="1420" />
            </Array>
          </mxGeometry>
        </mxCell>
        <mxCell id="_u0lqeuWp6ZSdY1_psYx-64" value="" style="edgeStyle=orthogonalEdgeStyle;rounded=0;orthogonalLoop=1;jettySize=auto;html=1;" edge="1" parent="1" source="_u0lqeuWp6ZSdY1_psYx-61" target="_u0lqeuWp6ZSdY1_psYx-63">
          <mxGeometry relative="1" as="geometry" />
        </mxCell>
        <mxCell id="_u0lqeuWp6ZSdY1_psYx-61" value="再byteBuddy的builder上指定将某个函数委托给某个组件去执行" style="whiteSpace=wrap;html=1;fillColor=#ffe6cc;strokeColor=#d79b00;rounded=0;" vertex="1" parent="1">
          <mxGeometry x="1730" y="1600" width="120" height="60" as="geometry" />
        </mxCell>
        <mxCell id="_u0lqeuWp6ZSdY1_psYx-63" value="通过上面这一步，就将目标函数拦截了，将其委托给组件定义的函数去执行。" style="whiteSpace=wrap;html=1;fillColor=#ffe6cc;strokeColor=#d79b00;rounded=0;" vertex="1" parent="1">
          <mxGeometry x="1730" y="1740" width="120" height="60" as="geometry" />
        </mxCell>
      </root>
    </mxGraphModel>
  </diagram>
</mxfile>
